<!--?xml version="1.0" encoding="utf-8"?-->
<!-- Generator: Adobe Illustrator 18.1.1, SVG Export Plug-In . SVG Version: 6.00 Build 0)  -->

<svg version="1.1" id="_x31_0" xmlns="http://www.w3.org/2000/svg" xmlns:xlink="http://www.w3.org/1999/xlink" x="0px" y="0px" viewBox="0 0 512 512" style="width: 256px; height: 256px; opacity: 1;" xml:space="preserve">
<style type="text/css">
	.st0{fill:#374149;}
</style>
<g>
	<path class="st0" d="M256,0C114.614,0,0,114.614,0,256s114.614,256,256,256c141.383,0,256-114.614,256-256S397.383,0,256,0z
		 M256,448c-105.871,0-192-86.129-192-192S150.129,64,256,64c105.867,0,192,86.129,192,192S361.867,448,256,448z" style="fill: rgb(75, 75, 75);"></path>
	<polygon class="st0" points="131.875,230.926 131.875,276.125 131.875,293.996 131.766,306.386 131.875,306.285 131.875,306.504 
		188.871,253.95 227.082,218.863 227.082,394.418 227.082,395.496 227.082,395.496 227.082,395.614 227.082,395.656 
		284.914,395.656 284.934,289.981 285.054,218.801 341.446,270.886 379.922,306.566 379.922,306.418 380.078,306.566 
		380.121,230.926 256,116.344 	" style="fill: rgb(75, 75, 75);"></polygon>
</g>
</svg>
