<!--?xml version="1.0" encoding="utf-8"?-->
<!-- Generator: Adobe Illustrator 18.1.1, SVG Export Plug-In . SVG Version: 6.00 Build 0)  -->

<svg version="1.1" id="_x32_" xmlns="http://www.w3.org/2000/svg" xmlns:xlink="http://www.w3.org/1999/xlink" x="0px" y="0px" viewBox="0 0 512 512" style="width: 256px; height: 256px; opacity: 1;" xml:space="preserve">
<style type="text/css">
	.st0{fill:#4B4B4B;}
</style>
<g>
	<path class="st0" d="M214.873,94.854c11.817,0,21.404-9.579,21.404-21.404V21.405C236.278,9.588,226.69,0,214.873,0
		c-11.826,0-21.405,9.588-21.405,21.405v52.044C193.469,85.275,203.048,94.854,214.873,94.854z" style="fill: rgb(75, 75, 75);"></path>
	<path class="st0" d="M132.611,94.854c11.817,0,21.404-9.579,21.404-21.404V21.405C154.015,9.588,144.428,0,132.611,0
		c-11.826,0-21.405,9.588-21.405,21.405v52.044C111.206,85.275,120.785,94.854,132.611,94.854z" style="fill: rgb(75, 75, 75);"></path>
	<path class="st0" d="M297.127,94.854c11.825,0,21.404-9.579,21.404-21.404V21.405C318.531,9.588,308.952,0,297.127,0
		c-11.817,0-21.405,9.588-21.405,21.405v52.044C275.722,85.275,285.31,94.854,297.127,94.854z" style="fill: rgb(75, 75, 75);"></path>
	<path class="st0" d="M379.389,94.854c11.825,0,21.404-9.579,21.404-21.404V21.405C400.794,9.588,391.215,0,379.389,0
		c-11.817,0-21.405,9.588-21.405,21.405v52.044C357.985,85.275,367.573,94.854,379.389,94.854z" style="fill: rgb(75, 75, 75);"></path>
	<path class="st0" d="M332.384,416.406v87.71l116.96-116.964h-87.71C345.487,387.178,332.414,400.251,332.384,416.406z" style="fill: rgb(75, 75, 75);"></path>
	<path class="st0" d="M421.945,24.34v49.11c0,23.462-19.089,42.56-42.555,42.56c-19.873,0-36.475-13.754-41.131-32.198
		c-4.656,18.444-21.258,32.198-41.131,32.198c-19.869,0-36.462-13.745-41.127-32.189c-4.665,18.444-21.258,32.189-41.127,32.189
		c-19.873,0-36.475-13.754-41.131-32.198c-4.656,18.444-21.258,32.198-41.131,32.198c-23.466,0-42.556-19.098-42.556-42.56V24.34
		H51.829v422.706c0,35.872,29.082,64.954,64.954,64.954h189.161v-95.594c0.009-30.769,24.929-55.684,55.689-55.693h98.538V24.34
		H421.945z M251.598,403.298h-120.45v-32.309h120.45V403.298z M380.852,315.166H131.148v-32.309h249.704V315.166z M380.852,227.034
		H131.148v-32.309h249.704V227.034z" style="fill: rgb(75, 75, 75);"></path>
</g>
</svg>
